<?xml version="1.0" encoding="UTF-8" standalone="no"?>
<svg width="32px" height="32px" viewBox="0 0 32 32" version="1.1" xmlns="http://www.w3.org/2000/svg" xmlns:xlink="http://www.w3.org/1999/xlink">
    <!-- Generator: Sketch 48.2 (47327) - http://www.bohemiancoding.com/sketch -->
    <title>menu_icon_order</title>
    <desc>Created with Sketch.</desc>
    <defs></defs>
    <g id="Page-1" stroke="none" stroke-width="1" fill="none" fill-rule="evenodd">
        <g id="menu_icon_order" fill="#191919">
            <g id="Page-1" transform="translate(2.000000, 0.000000)">
                <path d="M0,-0.0004 L0,29.0006 L3.5,31.9996 L7,29.0006 L10.5,31.9996 L14,29.0006 L17.5,31.9996 L21,29.0006 L24.5,31.9996 L28,29.0006 L28,-0.0004 L0,-0.0004 Z M2,28.0806 L2,2.0006 L26,2.0006 L26,28.0806 L24.5,29.3656 L22.301,27.4806 L20.999,26.3656 L19.697,27.4806 L17.5,29.3656 L15.302,27.4816 L14,26.3656 L12.699,27.4806 L10.5,29.3656 L8.302,27.4806 L7,26.3656 L5.699,27.4806 L3.5,29.3656 L2,28.0806 Z" id="Fill-1"></path>
                <polygon id="Fill-2" points="6 9 18 9 18 7 6 7"></polygon>
                <polygon id="Fill-3" points="6 14 22 14 22 12 6 12"></polygon>
                <polygon id="Fill-4" points="6 19 18 19 18 17 6 17"></polygon>
            </g>
        </g>
    </g>
</svg>