<?xml version="1.0" encoding="UTF-8" standalone="no"?>
<svg width="32px" height="32px" viewBox="0 0 32 32" version="1.1" xmlns="http://www.w3.org/2000/svg" xmlns:xlink="http://www.w3.org/1999/xlink">
    <!-- Generator: Sketch 48.2 (47327) - http://www.bohemiancoding.com/sketch -->
    <title>menu_icon_task_hl</title>
    <desc>Created with Sketch.</desc>
    <defs>
        <polygon id="path-1" points="0 24 32 24 32 0 0 0"></polygon>
    </defs>
    <g id="Page-1" stroke="none" stroke-width="1" fill="none" fill-rule="evenodd">
        <g id="menu_icon_task_hl">
            <g id="Page-1" transform="translate(0.000000, 4.000000)">
                <polygon id="Fill-1" fill="#0060FF" points="7 3 32 3 32 0.999 7 0.999"></polygon>
                <g id="Group-9">
                    <path d="M4,2 C4,3.105 3.105,4 2,4 C0.895,4 0,3.105 0,2 C0,0.895 0.895,0 2,0 C3.105,0 4,0.895 4,2" id="Fill-2" fill="#0060FF"></path>
                    <mask id="mask-2" fill="white">
                        <use xlink:href="#path-1"></use>
                    </mask>
                    <g id="Clip-5"></g>
                    <polygon id="Fill-4" fill="#0060FF" mask="url(#mask-2)" points="7 13 23 13 23 11 7 11"></polygon>
                    <path d="M4,12 C4,13.105 3.105,14 2,14 C0.895,14 0,13.105 0,12 C0,10.895 0.895,10 2,10 C3.105,10 4,10.895 4,12" id="Fill-6" fill="#0060FF" mask="url(#mask-2)"></path>
                    <polygon id="Fill-7" fill="#0060FF" mask="url(#mask-2)" points="7 23 32 23 32 21 7 21"></polygon>
                    <path d="M4,22 C4,23.105 3.105,24 2,24 C0.895,24 0,23.105 0,22 C0,20.895 0.895,20 2,20 C3.105,20 4,20.895 4,22" id="Fill-8" fill="#0060FF" mask="url(#mask-2)"></path>
                </g>
            </g>
        </g>
    </g>
</svg>