<?xml version="1.0" encoding="UTF-8" standalone="no"?>
<svg width="32px" height="32px" viewBox="0 0 32 32" version="1.1" xmlns="http://www.w3.org/2000/svg" xmlns:xlink="http://www.w3.org/1999/xlink">
    <!-- Generator: Sketch 48.2 (47327) - http://www.bohemiancoding.com/sketch -->
    <title>menu_icon_store</title>
    <desc>Created with Sketch.</desc>
    <defs></defs>
    <g id="Page-1" stroke="none" stroke-width="1" fill="none" fill-rule="evenodd">
        <g id="menu_icon_store">
            <g id="Page-1">
                <path d="M0,32 L32,32 L32,0 L0,0 L0,32 Z M2,30 L30,30 L30,2 L2,2 L2,30 Z" id="Fill-1" fill="#191919"></path>
                <path d="M18,31 L26,31 L26,17 L18,17 L18,31 Z" id="Fill-2" stroke="#191919" stroke-width="2"></path>
                <path d="M6,25 L14,25 L14,17 L6,17 L6,25 Z" id="Fill-3" stroke="#191919" stroke-width="2"></path>
                <g id="Group-12" transform="translate(0.000000, 1.000000)" stroke="#191919" stroke-width="2">
                    <path d="M4,9 C1.79093333,9 0,7.321 0,5.25 L0,0 L8,0 L8,5.25 C8,7.321 6.20906667,9 4,9 Z" id="Stroke-4"></path>
                    <path d="M12,9 C9.79093333,9 8,7.321 8,5.25 L8,0 L16,0 L16,5.25 C16,7.321 14.2090667,9 12,9 Z" id="Stroke-6"></path>
                    <path d="M20,9 C17.7909333,9 16,7.321 16,5.25 L16,0 L24,0 L24,5.25 C24,7.321 22.2090667,9 20,9 Z" id="Stroke-8"></path>
                    <path d="M28,9 C25.7909333,9 24,7.321 24,5.25 L24,0 L32,0 L32,5.25 C32,7.321 30.2090667,9 28,9 Z" id="Stroke-10"></path>
                </g>
            </g>
        </g>
    </g>
</svg>