<?xml version="1.0" encoding="UTF-8" standalone="no"?>
<svg width="32px" height="32px" viewBox="0 0 32 32" version="1.1" xmlns="http://www.w3.org/2000/svg" xmlns:xlink="http://www.w3.org/1999/xlink">
    <!-- Generator: Sketch 48.2 (47327) - http://www.bohemiancoding.com/sketch -->
    <title>menu_icon_split_hl</title>
    <desc>Created with Sketch.</desc>
    <defs></defs>
    <g id="Page-1" stroke="none" stroke-width="1" fill="none" fill-rule="evenodd">
        <g id="menu_icon_split_hl" fill="#0060FF">
            <g id="Page-1">
                <path d="M22,10 C16.477,10 12,12.239 12,15 C12,17.761 16.477,20 22,20 C27.523,20 32,17.761 32,15 C32,12.239 27.523,10 22,10 M22,12 C26.963,12 30,13.942 30,15 C30,16.058 26.963,18 22,18 C17.037,18 14,16.058 14,15 C14,13.942 17.037,12 22,12" id="Fill-1"></path>
                <path d="M22,10 C16.477,10 12,12.239 12,15 L12,27 C12,29.761 16.477,32 22,32 C27.523,32 32,29.761 32,27 L32,15 C32,12.239 27.523,10 22,10 M22,12 C26.963,12 30,13.942 30,15 L30,27 C30,28.058 26.963,30 22,30 C17.037,30 14,28.058 14,27 L14,15 C14,13.942 17.037,12 22,12" id="Fill-3"></path>
                <path d="M10,0 C4.477,0 0,2.239 0,5 C0,7.761 4.477,10 10,10 C15.523,10 20,7.761 20,5 C20,2.239 15.523,0 10,0 M10,2 C14.963,2 18,3.942 18,5 C18,6.058 14.963,8 10,8 C5.037,8 2,6.058 2,5 C2,3.942 5.037,2 10,2" id="Fill-5"></path>
                <path d="M32,21 L30,21 C30,22.657 26.418,24 22,24 C17.582,24 14,22.657 14,21 L12,21 C12,23.761 16.477,26 22,26 C27.523,26 32,23.761 32,21" id="Fill-7"></path>
                <path d="M12,27 L12,25.902 C11.36,25.964 10.692,26 10,26 C5.582,26 2,24.657 2,23 L2,5 C2,3.343 5.582,2 10,2 C14.418,2 18,3.343 18,5 L18,10.419 C18.636,10.28 19.304,10.171 20,10.1 L20,5 C20,2.239 15.523,0 10,0 C4.477,0 0,2.239 0,5 L0,23 C0,25.761 4.477,28 10,28 C10.744,28 11.466,27.956 12.164,27.879 C12.062,27.593 12,27.301 12,27" id="Fill-9"></path>
                <path d="M2,11 L0,11 C0,13.761 4.477,16 10,16 C10.685,16 11.354,15.965 12,15.9 L12,15 C12,14.613 12.096,14.238 12.263,13.876 C11.545,13.956 10.787,14 10,14 C5.582,14 2,12.657 2,11" id="Fill-11"></path>
                <path d="M2,17 L0,17 C0,19.761 4.477,22 10,22 C10.685,22 11.354,21.965 12,21.9 L12,19.902 C11.36,19.964 10.692,20 10,20 C5.582,20 2,18.657 2,17" id="Fill-13"></path>
            </g>
        </g>
    </g>
</svg>