<?xml version="1.0" encoding="UTF-8" standalone="no"?>
<svg width="32px" height="32px" viewBox="0 0 32 32" version="1.1" xmlns="http://www.w3.org/2000/svg" xmlns:xlink="http://www.w3.org/1999/xlink">
    <!-- Generator: Sketch 48.2 (47327) - http://www.bohemiancoding.com/sketch -->
    <title>public_icon_delete</title>
    <desc>Created with Sketch.</desc>
    <defs></defs>
    <g id="Page-1" stroke="none" stroke-width="1" fill="none" fill-rule="evenodd">
        <g id="public_icon_delete" fill="#0060FF">
            <g id="Group-13" transform="translate(6.000000, 4.000000)">
                <path d="M18.0122,4 L2.0122,4 L2.0122,22 C2.0122,23.105 2.9072,24 4.0122,24 L16.0122,24 C17.1172,24 18.0122,23.105 18.0122,22 L18.0122,4 Z M4.0122,22 L16.0122,22 L16.0122,6 L4.0122,6 L4.0122,22 Z" id="Fill-6"></path>
                <polygon id="Fill-8" points="0 6 20 6 20 4 0 4"></polygon>
                <path d="M14,0 L6,0 C4.895,0 4,0.895 4,2 L4,6 L16,6 L16,2 C16,0.895 15.105,0 14,0 Z M6,4 L14,4 L14,2 L6,2 L6,4 Z" id="Fill-10"></path>
                <polygon id="Fill-11" points="7 20 9 20 9 8 7 8"></polygon>
                <polygon id="Fill-12" points="11 20 13 20 13 8 11 8"></polygon>
            </g>
        </g>
    </g>
</svg>