<?xml version="1.0" encoding="UTF-8" standalone="no"?>
<svg width="32px" height="32px" viewBox="0 0 32 32" version="1.1" xmlns="http://www.w3.org/2000/svg" xmlns:xlink="http://www.w3.org/1999/xlink">
    <!-- Generator: Sketch 48.2 (47327) - http://www.bohemiancoding.com/sketch -->
    <title>public_icon_preview</title>
    <desc>Created with Sketch.</desc>
    <defs></defs>
    <g id="Page-1" stroke="none" stroke-width="1" fill="none" fill-rule="evenodd">
        <g id="public_icon_preview" fill="#0060FF">
            <g id="Page-1" transform="translate(4.000000, 4.000000)">
                <path d="M12,0 C5.373,0 0,5.373 0,12 C0,18.627 5.373,24 12,24 C18.627,24 24,18.627 24,12 C24,5.373 18.627,0 12,0 M12,2 C17.514,2 22,6.486 22,12 C22,17.514 17.514,22 12,22 C6.486,22 2,17.514 2,12 C2,6.486 6.486,2 12,2" id="Fill-1"></path>
                <path d="M10.5,16 C9.672,16 9,15.329 9,14.5 C9,13.671 9.672,13 10.5,13 C11.328,13 12,13.671 12,14.5 C12,15.329 11.328,16 10.5,16 M18.115,8.214 C16.66,5.961 13.961,4.588 10.979,5.111 C8.191,5.6 5.92,7.814 5.379,10.591 C4.505,15.075 7.915,19 12.241,19 C14.709,19 16.869,17.716 18.115,15.786 C15.896,13.75 15.896,10.25 18.115,8.214" id="Fill-3"></path>
            </g>
        </g>
    </g>
</svg>