<?xml version="1.0" encoding="UTF-8" standalone="no"?>
<svg width="32px" height="32px" viewBox="0 0 32 32" version="1.1" xmlns="http://www.w3.org/2000/svg" xmlns:xlink="http://www.w3.org/1999/xlink">
    <!-- Generator: Sketch 48.2 (47327) - http://www.bohemiancoding.com/sketch -->
    <title>public_icon_edit</title>
    <desc>Created with Sketch.</desc>
    <defs></defs>
    <g id="Page-1" stroke="none" stroke-width="1" fill="none" fill-rule="evenodd">
        <g id="public_icon_edit" fill="#0060FF">
            <g id="Group" transform="translate(6.000000, 2.000000)">
                <polygon id="Fill-1" points="0 28 20 28 20 26 0 26"></polygon>
                <path d="M14,0 L6,0 C5.45,0 5,0.45 5,1 L5,17 L10,24 L15,17 L15,1 C15,0.45 14.55,0 14,0 M13,2 L13,16.359 L10,20.559 L7,16.359 L7,2 L13,2" id="Fill-2"></path>
                <path d="M14.5,6 L5.5,6 C5.225,6 5,5.775 5,5.5 L5,4.5 C5,4.225 5.225,4 5.5,4 L14.5,4 C14.775,4 15,4.225 15,4.5 L15,5.5 C15,5.775 14.775,6 14.5,6" id="Fill-4"></path>
            </g>
        </g>
    </g>
</svg>